<svg width="720" height="253" viewBox="0 0 720 253" fill="none" xmlns="http://www.w3.org/2000/svg">
<path d="M0 0H720V253H0V0Z" fill="#1C1C1C" fill-opacity="0.44"/>
<path d="M545.016 253C577.544 224.648 598.105 182.881 598.105 136.304C598.105 77.3433 565.157 26.0893 516.695 0L370.674 0C322.211 26.0893 289.263 77.3433 289.263 136.304C289.263 182.881 309.824 224.648 342.352 253H545.016Z" fill="#1C1C1C" fill-opacity="0.44"/>
<path d="M507.742 253H378.363C338.73 230.429 312 187.758 312 138.834C312 66.3498 370.674 7.59 443.053 7.59C515.431 7.59 574.105 66.3498 574.105 138.834C574.105 187.758 547.375 230.429 507.742 253Z" fill="#1C1C1C" fill-opacity="0.44"/>
</svg>
