<svg width="13" height="13" viewBox="0 0 13 13" fill="none" xmlns="http://www.w3.org/2000/svg">
<path d="M4.3151 1H2.57143C1.70355 1 1 1.70355 1 2.57143V4.14286C1 8.48224 4.51776 12 8.85714 12H10.4286C11.2964 12 12 11.2964 12 10.4286V9.34274C12 9.04513 11.8319 8.77307 11.5657 8.63998L9.66744 7.69086C9.23977 7.47703 8.72186 7.69155 8.57066 8.14516L8.3367 8.84704C8.18515 9.30168 7.71878 9.57233 7.24885 9.47834C5.36801 9.10217 3.89783 7.63199 3.52166 5.75115C3.42767 5.28122 3.69832 4.81485 4.15296 4.6633L5.02403 4.37294C5.41352 4.24311 5.63739 3.83529 5.53782 3.43699L5.07736 1.59515C4.98992 1.24538 4.67564 1 4.3151 1Z" stroke="black"/>
</svg>
