<svg width="13" height="13" viewBox="0 0 13 13" fill="none" xmlns="http://www.w3.org/2000/svg">
<path d="M9.25 3.35714H10.0357M4.14286 1H8.85714C10.5929 1 12 2.40711 12 4.14286V8.85714C12 10.5929 10.5929 12 8.85714 12H4.14286C2.4071 12 1 10.5929 1 8.85714V4.14286C1 2.4071 2.40711 1 4.14286 1ZM6.5 8.85714C5.19819 8.85714 4.14286 7.80181 4.14286 6.5C4.14286 5.19819 5.19819 4.14286 6.5 4.14286C7.80181 4.14286 8.85714 5.19819 8.85714 6.5C8.85714 7.80181 7.80181 8.85714 6.5 8.85714Z" stroke="black"/>
</svg>
